# Blender 4.2.2 LTS
# www.blender.org
o Claw-L
v -0.011000 0.007500 -0.011000
v -0.011000 -0.007500 -0.011000
v -0.011000 0.007500 0.015000
v -0.011000 -0.007500 0.015000
v 0.011000 0.007500 -0.011000
v 0.011000 -0.007500 -0.011000
v 0.011000 0.007500 0.015000
v 0.011000 -0.007500 0.015000
v -0.014500 0.007500 0.000000
v -0.014500 -0.007500 -0.000000
v 0.015000 0.007500 0.000000
v 0.015000 -0.007500 -0.000000
v 0.000000 0.007500 0.015000
v 0.000000 -0.007500 0.015000
v 0.000000 0.007500 -0.015000
v 0.000000 -0.007500 -0.015000
v 0.000000 -0.007500 -0.000000
v 0.000000 0.007500 0.000000
v -0.011000 -0.007500 0.040000
v -0.011000 0.007500 0.040000
v 0.000000 0.007500 0.040000
v 0.000000 -0.007500 0.040000
v -0.015000 -0.007500 0.060000
v -0.015000 0.007500 0.060000
v -0.004000 0.007500 0.060000
v -0.004000 -0.007500 0.060000
v -0.015000 -0.007500 0.085000
v -0.015000 0.007500 0.085000
v -0.004000 0.007500 0.085000
v -0.004000 -0.007500 0.085000
vn -0.9738 -0.0000 0.2272
vn -1.0000 -0.0000 -0.0000
vn 0.9398 -0.0000 -0.3417
vn -0.3417 -0.0000 -0.9398
vn -0.0000 1.0000 -0.0000
vn -0.0000 -1.0000 -0.0000
vn 0.9662 -0.0000 0.2577
vn -0.9529 -0.0000 -0.3032
vn 0.3417 -0.0000 -0.9398
vn 0.9153 -0.0000 0.4027
vn 0.9806 -0.0000 0.1961
vn -0.9806 -0.0000 -0.1961
vn -0.0000 -0.0000 1.0000
vn 1.0000 -0.0000 -0.0000
s 0
f 9//1 10//1 4//1 3//1
f 3//2 4//2 19//2 20//2
f 11//3 12//3 6//3 5//3
f 15//4 16//4 2//4 1//4
f 18//5 11//5 5//5 15//5
f 17//6 10//6 2//6 16//6
f 14//6 4//6 10//6 17//6
f 13//5 7//5 11//5 18//5
f 7//7 8//7 12//7 11//7
f 1//8 2//8 10//8 9//8
f 3//5 13//5 18//5 9//5
f 8//6 14//6 17//6 12//6
f 12//6 17//6 16//6 6//6
f 9//5 18//5 15//5 1//5
f 5//9 6//9 16//9 15//9
f 13//5 21//5 7//5
f 19//6 22//6 26//6 23//6
f 4//6 14//6 22//6 19//6
f 14//6 8//6 22//6
f 13//5 3//5 20//5 21//5
f 7//10 21//10 22//10 8//10
f 23//6 26//6 30//6 27//6
f 21//5 20//5 24//5 25//5
f 22//11 21//11 25//11 26//11
f 20//12 19//12 23//12 24//12
f 28//13 27//13 30//13 29//13
f 24//2 23//2 27//2 28//2
f 26//14 25//14 29//14 30//14
f 25//5 24//5 28//5 29//5
