# Blender 4.2.2 LTS
# www.blender.org
o Servo-Claw
v 0.040720 0.023527 -0.012500
v 0.040720 -0.012668 -0.012500
v -0.013573 0.023527 -0.012500
v -0.007368 -0.012668 -0.008126
v 0.040720 0.023527 0.012500
v 0.040720 -0.012668 0.012500
v -0.013573 0.023527 0.012500
v -0.007368 -0.012668 0.008126
v 0.013573 0.023527 -0.012500
v 0.007369 -0.012668 -0.008126
v 0.013573 0.023527 0.012500
v 0.007369 -0.012668 0.008126
v 0.000000 -0.012668 -0.010850
v 0.000000 0.023527 0.012500
v 0.000000 0.023527 -0.012500
v 0.000000 -0.012668 0.010850
v -0.013573 0.023527 0.000000
v -0.009839 -0.012668 0.000000
v 0.040720 0.023527 0.000000
v 0.040720 -0.012668 -0.000000
v 0.009839 -0.012668 -0.000000
v 0.013573 0.023527 0.000000
v 0.000000 0.023527 0.000000
v 0.000000 -0.012668 -0.012500
v -0.013573 -0.012668 -0.012500
v -0.013573 -0.012668 -0.000000
v -0.013573 -0.012668 0.012500
v 0.000000 -0.012668 0.012500
v 0.013573 -0.012668 0.012500
v 0.013573 -0.012668 -0.000000
v 0.013573 -0.012668 -0.012500
v 0.000000 -0.023527 -0.000000
v 0.000000 -0.023527 0.010850
v 0.000000 -0.023527 -0.010850
v -0.009839 -0.023527 0.000000
v 0.009839 -0.023527 -0.000000
v -0.007368 -0.023527 -0.008126
v -0.007368 -0.023527 0.008126
v 0.007369 -0.023527 0.008126
v 0.007369 -0.023527 -0.008126
vn -0.0000 -0.0000 -1.0000
vn -1.0000 -0.0000 -0.0000
vn -0.0000 -0.0000 1.0000
vn 1.0000 -0.0000 -0.0000
vn -0.0000 1.0000 -0.0000
vn -0.0000 -1.0000 -0.0000
vn 0.9567 -0.0000 0.2909
vn -0.3468 -0.0000 0.9379
vn 0.9567 -0.0000 -0.2909
vn -0.3468 -0.0000 -0.9379
vn -0.9567 -0.0000 0.2909
vn -0.9567 -0.0000 -0.2909
vn 0.3468 -0.0000 -0.9379
vn 0.3468 -0.0000 0.9379
s 0
f 15//1 24//1 25//1 3//1
f 17//2 26//2 27//2 7//2
f 11//3 29//3 6//3 5//3
f 19//4 20//4 2//4 1//4
f 22//5 11//5 5//5 19//5
f 30//6 31//6 2//6 20//6
f 21//7 12//7 39//7 36//7
f 23//5 14//5 11//5 22//5
f 14//3 28//3 29//3 11//3
f 1//1 2//1 31//1 9//1
f 7//3 27//3 28//3 14//3
f 17//5 7//5 14//5 23//5
f 16//8 8//8 38//8 33//8
f 9//1 31//1 24//1 15//1
f 10//9 21//9 36//9 40//9
f 3//5 17//5 23//5 15//5
f 15//5 23//5 22//5 9//5
f 4//10 13//10 34//10 37//10
f 29//6 30//6 20//6 6//6
f 9//5 22//5 19//5 1//5
f 5//4 6//4 20//4 19//4
f 3//2 25//2 26//2 17//2
f 13//6 4//6 25//6 24//6
f 18//6 8//6 27//6 26//6
f 16//6 12//6 29//6 28//6
f 12//6 21//6 30//6 29//6
f 10//6 13//6 24//6 31//6
f 8//6 16//6 28//6 27//6
f 4//6 18//6 26//6 25//6
f 21//6 10//6 31//6 30//6
f 32//6 34//6 40//6 36//6
f 35//6 37//6 34//6 32//6
f 38//6 35//6 32//6 33//6
f 33//6 32//6 36//6 39//6
f 8//11 18//11 35//11 38//11
f 18//12 4//12 37//12 35//12
f 13//13 10//13 40//13 34//13
f 12//14 16//14 33//14 39//14
